<svg width="2058" height="1050" xmlns="http://www.w3.org/2000/svg" xmlns:xlink="http://www.w3.org/1999/xlink" overflow="hidden"><defs><clipPath id="clip0"><rect x="3034" y="6063" width="2058" height="1050"/></clipPath><clipPath id="clip1"><rect x="3038" y="6068" width="2049" height="1041"/></clipPath><clipPath id="clip2"><rect x="3266" y="6343" width="1774" height="613"/></clipPath><clipPath id="clip3"><rect x="3266" y="6343" width="1774" height="613"/></clipPath><clipPath id="clip4"><rect x="3266" y="6343" width="1774" height="613"/></clipPath><clipPath id="clip5"><rect x="3266" y="6343" width="1774" height="613"/></clipPath><clipPath id="clip6"><rect x="3266" y="6343" width="1774" height="613"/></clipPath><clipPath id="clip7"><rect x="3266" y="6343" width="1774" height="613"/></clipPath><clipPath id="clip8"><rect x="3266" y="6343" width="1774" height="613"/></clipPath><clipPath id="clip9"><rect x="3038" y="6068" width="2049" height="1041"/></clipPath><clipPath id="clip10"><rect x="3038" y="6068" width="2049" height="1041"/></clipPath><clipPath id="clip11"><rect x="3038" y="6068" width="2049" height="1041"/></clipPath><clipPath id="clip12"><rect x="3038" y="6068" width="2049" height="1041"/></clipPath><clipPath id="clip13"><rect x="3038" y="6068" width="2049" height="1041"/></clipPath><clipPath id="clip14"><rect x="3038" y="6068" width="2049" height="1041"/></clipPath><clipPath id="clip15"><rect x="3038" y="6068" width="2049" height="1041"/></clipPath><clipPath id="clip16"><rect x="3038" y="6068" width="2049" height="1041"/></clipPath><clipPath id="clip17"><rect x="3038" y="6068" width="2049" height="1041"/></clipPath><clipPath id="clip18"><rect x="3038" y="6068" width="2049" height="1041"/></clipPath><clipPath id="clip19"><rect x="3038" y="6068" width="2049" height="1041"/></clipPath><clipPath id="clip20"><rect x="3038" y="6068" width="2049" height="1041"/></clipPath><clipPath id="clip21"><rect x="3038" y="6068" width="2049" height="1041"/></clipPath><clipPath id="clip22"><rect x="3038" y="6068" width="2049" height="1041"/></clipPath><clipPath id="clip23"><rect x="3038" y="6068" width="2049" height="1041"/></clipPath><clipPath id="clip24"><rect x="3038" y="6068" width="2049" height="1041"/></clipPath><clipPath id="clip25"><rect x="3038" y="6068" width="2049" height="1041"/></clipPath><clipPath id="clip26"><rect x="3038" y="6068" width="2049" height="1041"/></clipPath><clipPath id="clip27"><rect x="3038" y="6068" width="2049" height="1041"/></clipPath><clipPath id="clip28"><rect x="3038" y="6068" width="2049" height="1041"/></clipPath><clipPath id="clip29"><rect x="3038" y="6068" width="2049" height="1041"/></clipPath><clipPath id="clip30"><rect x="3038" y="6068" width="2049" height="1041"/></clipPath><clipPath id="clip31"><rect x="3038" y="6068" width="2049" height="1041"/></clipPath><clipPath id="clip32"><rect x="3038" y="6068" width="2049" height="1041"/></clipPath><clipPath id="clip33"><rect x="3038" y="6068" width="2049" height="1041"/></clipPath><clipPath id="clip34"><rect x="3038" y="6068" width="2049" height="1041"/></clipPath><clipPath id="clip35"><rect x="3038" y="6068" width="2049" height="1041"/></clipPath><clipPath id="clip36"><rect x="3038" y="6068" width="2049" height="1041"/></clipPath><clipPath id="clip37"><rect x="3038" y="6068" width="2049" height="1041"/></clipPath><clipPath id="clip38"><rect x="3038" y="6068" width="2049" height="1041"/></clipPath><clipPath id="clip39"><rect x="3038" y="6068" width="2049" height="1041"/></clipPath><clipPath id="clip40"><rect x="3038" y="6068" width="2049" height="1041"/></clipPath><clipPath id="clip41"><rect x="3038" y="6068" width="2049" height="1041"/></clipPath><clipPath id="clip42"><rect x="3038" y="6068" width="2049" height="1041"/></clipPath><clipPath id="clip43"><rect x="3038" y="6068" width="2049" height="1041"/></clipPath><clipPath id="clip44"><rect x="3038" y="6068" width="2049" height="1041"/></clipPath><clipPath id="clip45"><rect x="3038" y="6068" width="2049" height="1041"/></clipPath><clipPath id="clip46"><rect x="3038" y="6068" width="2049" height="1041"/></clipPath><clipPath id="clip47"><rect x="3038" y="6068" width="2049" height="1041"/></clipPath><clipPath id="clip48"><rect x="3038" y="6068" width="2049" height="1041"/></clipPath><clipPath id="clip49"><rect x="3038" y="6068" width="2049" height="1041"/></clipPath><clipPath id="clip50"><rect x="3038" y="6068" width="2049" height="1041"/></clipPath><clipPath id="clip51"><rect x="3038" y="6068" width="2049" height="1041"/></clipPath><clipPath id="clip52"><rect x="3038" y="6068" width="2049" height="1041"/></clipPath><clipPath id="clip53"><rect x="3038" y="6068" width="2049" height="1041"/></clipPath><clipPath id="clip54"><rect x="3038" y="6068" width="2049" height="1041"/></clipPath><clipPath id="clip55"><rect x="3038" y="6068" width="2049" height="1041"/></clipPath></defs><g clip-path="url(#clip0)" transform="translate(-3034 -6063)"><rect x="3039" y="6068" width="2048" height="1042" fill="#FFFFFF" fill-opacity="1"/><g clip-path="url(#clip1)"><path d="M3266.5 6885.73 5037.5 6885.73M3266.5 6817.72 5037.5 6817.72M3266.5 6749.72 5037.5 6749.72M3266.5 6681.72 5037.5 6681.72M3266.5 6614.72 5037.5 6614.72M3266.5 6546.71 5037.5 6546.71M3266.5 6478.71 5037.5 6478.71M3266.5 6410.71 5037.5 6410.71M3266.5 6343.5 5037.5 6343.5" stroke="#D9D9D9" stroke-width="3.4375" stroke-linecap="butt" stroke-linejoin="round" stroke-miterlimit="10" stroke-opacity="1" fill="none" fill-rule="nonzero"/></g><g clip-path="url(#clip2)"><path d="M3285.11 6438.21 3301.11 6438.21 3301.11 6953 3285.11 6953ZM3462.11 6460.21 3478.11 6460.21 3478.11 6953 3462.11 6953ZM3639.12 6470.21 3655.12 6470.21 3655.12 6953 3639.12 6953ZM3816.13 6442.21 3832.13 6442.21 3832.13 6953 3816.13 6953ZM3993.13 6441.21 4009.13 6441.21 4009.13 6953 3993.13 6953ZM4170.14 6509.21 4186.14 6509.21 4186.14 6953 4170.14 6953ZM4347.14 6562.22 4363.14 6562.22 4363.14 6953 4347.14 6953ZM4524.15 6540.21 4540.15 6540.21 4540.15 6953 4524.15 6953ZM4701.15 6555.22 4717.15 6555.22 4717.15 6953 4701.15 6953ZM4878.16 6441.21 4894.16 6441.21 4894.16 6953 4878.16 6953Z" fill="#70AD47" fill-rule="nonzero" fill-opacity="1"/></g><g clip-path="url(#clip3)"><path d="M3305.11 6507.21 3322.11 6507.21 3322.11 6953 3305.11 6953ZM3482.11 6709.22 3499.11 6709.22 3499.11 6953 3482.11 6953ZM3659.12 6479.21 3676.12 6479.21 3676.12 6953 3659.12 6953ZM3836.13 6636.22 3853.13 6636.22 3853.13 6953 3836.13 6953ZM4013.13 6712.22 4030.13 6712.22 4030.13 6953 4013.13 6953ZM4190.14 6763.22 4207.14 6763.22 4207.14 6953 4190.14 6953ZM4368.14 6671.22 4384.14 6671.22 4384.14 6953 4368.14 6953ZM4545.15 6680.22 4561.15 6680.22 4561.15 6953 4545.15 6953ZM4722.15 6770.22 4738.16 6770.22 4738.16 6953 4722.15 6953ZM4899.16 6589.22 4915.16 6589.22 4915.16 6953 4899.16 6953Z" fill="#548235" fill-rule="nonzero" fill-opacity="1"/></g><g clip-path="url(#clip4)"><path d="M3326.11 6565.22 3342.11 6565.22 3342.11 6953 3326.11 6953ZM3503.11 6592.22 3520.12 6592.22 3520.12 6953 3503.11 6953ZM3680.12 6593.22 3697.12 6593.22 3697.12 6953 3680.12 6953ZM3857.13 6597.22 3874.13 6597.22 3874.13 6953 3857.13 6953ZM4034.13 6598.22 4051.13 6598.22 4051.13 6953 4034.13 6953ZM4211.14 6692.22 4228.14 6692.22 4228.14 6953 4211.14 6953ZM4388.14 6711.22 4405.14 6711.22 4405.14 6953 4388.14 6953ZM4565.15 6714.22 4582.15 6714.22 4582.15 6953 4565.15 6953ZM4742.16 6800.22 4759.16 6800.22 4759.16 6953 4742.16 6953ZM4919.16 6601.22 4936.16 6601.22 4936.16 6953 4919.16 6953Z" fill="#A6A6A6" fill-rule="nonzero" fill-opacity="1"/></g><g clip-path="url(#clip5)"><path d="M3347.11 6537.21 3363.11 6537.21 3363.11 6953 3347.11 6953ZM3524.12 6661.22 3540.12 6661.22 3540.12 6953 3524.12 6953ZM3701.12 6514.21 3717.12 6514.21 3717.12 6953 3701.12 6953ZM3878.13 6621.22 3894.13 6621.22 3894.13 6953 3878.13 6953ZM4055.13 6665.22 4071.13 6665.22 4071.13 6953 4055.13 6953ZM4232.14 6802.22 4248.14 6802.22 4248.14 6953 4232.14 6953ZM4409.14 6681.22 4425.15 6681.22 4425.15 6953 4409.14 6953ZM4586.15 6695.22 4603.15 6695.22 4603.15 6953 4586.15 6953ZM4763.16 6781.22 4780.16 6781.22 4780.16 6953 4763.16 6953ZM4940.16 6581.22 4957.16 6581.22 4957.16 6953 4940.16 6953Z" fill="#A9D18E" fill-rule="nonzero" fill-opacity="1"/></g><g clip-path="url(#clip6)"><path d="M3368.11 6576.22 3384.11 6576.22 3384.11 6953 3368.11 6953ZM3545.12 6588.22 3561.12 6588.22 3561.12 6953 3545.12 6953ZM3722.12 6550.21 3738.12 6550.21 3738.12 6953 3722.12 6953ZM3899.13 6590.22 3915.13 6590.22 3915.13 6953 3899.13 6953ZM4076.13 6588.22 4092.13 6588.22 4092.13 6953 4076.13 6953ZM4253.14 6599.22 4269.14 6599.22 4269.14 6953 4253.14 6953ZM4430.15 6592.22 4446.15 6592.22 4446.15 6953 4430.15 6953ZM4607.15 6597.22 4623.15 6597.22 4623.15 6953 4607.15 6953ZM4784.16 6595.22 4800.16 6595.22 4800.16 6953 4784.16 6953ZM4961.16 6594.22 4977.16 6594.22 4977.16 6953 4961.16 6953Z" fill="#5B9BD5" fill-rule="nonzero" fill-opacity="1"/></g><g clip-path="url(#clip7)"><path d="M3389.11 6513.21 3405.11 6513.21 3405.11 6953 3389.11 6953ZM3566.12 6514.21 3582.12 6514.21 3582.12 6953 3566.12 6953ZM3743.12 6479.21 3759.12 6479.21 3759.12 6953 3743.12 6953ZM3920.13 6517.21 3936.13 6517.21 3936.13 6953 3920.13 6953ZM4097.13 6514.21 4113.13 6514.21 4113.13 6953 4097.13 6953ZM4274.14 6522.21 4290.14 6522.21 4290.14 6953 4274.14 6953ZM4451.15 6519.21 4467.15 6519.21 4467.15 6953 4451.15 6953ZM4628.15 6520.21 4644.15 6520.21 4644.15 6953 4628.15 6953ZM4805.16 6520.21 4821.16 6520.21 4821.16 6953 4805.16 6953ZM4982.16 6520.21 4998.16 6520.21 4998.16 6953 4982.16 6953Z" fill="#264478" fill-rule="nonzero" fill-opacity="1"/></g><g clip-path="url(#clip8)"><path d="M3409.11 6347.21 3426.11 6347.21 3426.11 6953 3409.11 6953ZM3586.12 6358.21 3603.12 6358.21 3603.12 6953 3586.12 6953ZM3763.12 6366.21 3780.12 6366.21 3780.12 6953 3763.12 6953ZM3940.13 6354.21 3957.13 6354.21 3957.13 6953 3940.13 6953ZM4117.14 6359.21 4134.14 6359.21 4134.14 6953 4117.14 6953ZM4294.14 6355.21 4311.14 6355.21 4311.14 6953 4294.14 6953ZM4472.15 6377.21 4488.15 6377.21 4488.15 6953 4472.15 6953ZM4649.15 6375.21 4665.15 6375.21 4665.15 6953 4649.15 6953ZM4826.16 6376.21 4842.16 6376.21 4842.16 6953 4826.16 6953ZM5003.16 6357.21 5019.16 6357.21 5019.16 6953 5003.16 6953Z" fill="#767171" fill-rule="nonzero" fill-opacity="1"/></g><g clip-path="url(#clip9)"><path d="M3266.5 6953.5 5037.5 6953.5" stroke="#D9D9D9" stroke-width="3.4375" stroke-linecap="butt" stroke-linejoin="round" stroke-miterlimit="10" stroke-opacity="1" fill="none" fill-rule="evenodd"/></g><g clip-path="url(#clip10)"><text fill="#595959" fill-opacity="1" font-family="Calibri,Calibri_MSFontService,sans-serif" font-style="normal" font-variant="normal" font-weight="400" font-stretch="normal" font-size="41" text-anchor="start" direction="ltr" writing-mode="lr-tb" unicode-bidi="normal" text-decoration="none" transform="matrix(1 0 0 1 3207.53 6963)">1</text></g><g clip-path="url(#clip11)"><text fill="#595959" fill-opacity="1" font-family="Calibri,Calibri_MSFontService,sans-serif" font-style="normal" font-variant="normal" font-weight="400" font-stretch="normal" font-size="41" text-anchor="start" direction="ltr" writing-mode="lr-tb" unicode-bidi="normal" text-decoration="none" transform="matrix(1 0 0 1 3207.53 6896)">2</text></g><g clip-path="url(#clip12)"><text fill="#595959" fill-opacity="1" font-family="Calibri,Calibri_MSFontService,sans-serif" font-style="normal" font-variant="normal" font-weight="400" font-stretch="normal" font-size="41" text-anchor="start" direction="ltr" writing-mode="lr-tb" unicode-bidi="normal" text-decoration="none" transform="matrix(1 0 0 1 3207.53 6828)">4</text></g><g clip-path="url(#clip13)"><text fill="#595959" fill-opacity="1" font-family="Calibri,Calibri_MSFontService,sans-serif" font-style="normal" font-variant="normal" font-weight="400" font-stretch="normal" font-size="41" text-anchor="start" direction="ltr" writing-mode="lr-tb" unicode-bidi="normal" text-decoration="none" transform="matrix(1 0 0 1 3207.53 6760)">8</text></g><g clip-path="url(#clip14)"><text fill="#595959" fill-opacity="1" font-family="Calibri,Calibri_MSFontService,sans-serif" font-style="normal" font-variant="normal" font-weight="400" font-stretch="normal" font-size="41" text-anchor="start" direction="ltr" writing-mode="lr-tb" unicode-bidi="normal" text-decoration="none" transform="matrix(1 0 0 1 3186.63 6692)">16</text></g><g clip-path="url(#clip15)"><text fill="#595959" fill-opacity="1" font-family="Calibri,Calibri_MSFontService,sans-serif" font-style="normal" font-variant="normal" font-weight="400" font-stretch="normal" font-size="41" text-anchor="start" direction="ltr" writing-mode="lr-tb" unicode-bidi="normal" text-decoration="none" transform="matrix(1 0 0 1 3186.63 6624)">32</text></g><g clip-path="url(#clip16)"><text fill="#595959" fill-opacity="1" font-family="Calibri,Calibri_MSFontService,sans-serif" font-style="normal" font-variant="normal" font-weight="400" font-stretch="normal" font-size="41" text-anchor="start" direction="ltr" writing-mode="lr-tb" unicode-bidi="normal" text-decoration="none" transform="matrix(1 0 0 1 3186.63 6557)">64</text></g><g clip-path="url(#clip17)"><text fill="#595959" fill-opacity="1" font-family="Calibri,Calibri_MSFontService,sans-serif" font-style="normal" font-variant="normal" font-weight="400" font-stretch="normal" font-size="41" text-anchor="start" direction="ltr" writing-mode="lr-tb" unicode-bidi="normal" text-decoration="none" transform="matrix(1 0 0 1 3165.73 6489)">128</text></g><g clip-path="url(#clip18)"><text fill="#595959" fill-opacity="1" font-family="Calibri,Calibri_MSFontService,sans-serif" font-style="normal" font-variant="normal" font-weight="400" font-stretch="normal" font-size="41" text-anchor="start" direction="ltr" writing-mode="lr-tb" unicode-bidi="normal" text-decoration="none" transform="matrix(1 0 0 1 3165.73 6421)">256</text></g><g clip-path="url(#clip19)"><text fill="#595959" fill-opacity="1" font-family="Calibri,Calibri_MSFontService,sans-serif" font-style="normal" font-variant="normal" font-weight="400" font-stretch="normal" font-size="41" text-anchor="start" direction="ltr" writing-mode="lr-tb" unicode-bidi="normal" text-decoration="none" transform="matrix(1 0 0 1 3165.73 6353)">512</text></g><g clip-path="url(#clip20)"><text fill="#595959" fill-opacity="1" font-family="Calibri,Calibri_MSFontService,sans-serif" font-style="normal" font-variant="normal" font-weight="400" font-stretch="normal" font-size="41" text-anchor="start" direction="ltr" writing-mode="lr-tb" unicode-bidi="normal" text-decoration="none" transform="matrix(1 0 0 1 3315.78 7018)">col 0</text></g><g clip-path="url(#clip21)"><text fill="#595959" fill-opacity="1" font-family="Calibri,Calibri_MSFontService,sans-serif" font-style="normal" font-variant="normal" font-weight="400" font-stretch="normal" font-size="41" text-anchor="start" direction="ltr" writing-mode="lr-tb" unicode-bidi="normal" text-decoration="none" transform="matrix(1 0 0 1 3319.07 7069)">long</text></g><g clip-path="url(#clip22)"><text fill="#595959" fill-opacity="1" font-family="Calibri,Calibri_MSFontService,sans-serif" font-style="normal" font-variant="normal" font-weight="400" font-stretch="normal" font-size="41" text-anchor="start" direction="ltr" writing-mode="lr-tb" unicode-bidi="normal" text-decoration="none" transform="matrix(1 0 0 1 3482.37 7018)">col 12</text></g><g clip-path="url(#clip23)"><text fill="#595959" fill-opacity="1" font-family="Calibri,Calibri_MSFontService,sans-serif" font-style="normal" font-variant="normal" font-weight="400" font-stretch="normal" font-size="41" text-anchor="start" direction="ltr" writing-mode="lr-tb" unicode-bidi="normal" text-decoration="none" transform="matrix(1 0 0 1 3484.81 7069)">string</text></g><g clip-path="url(#clip24)"><text fill="#595959" fill-opacity="1" font-family="Calibri,Calibri_MSFontService,sans-serif" font-style="normal" font-variant="normal" font-weight="400" font-stretch="normal" font-size="41" text-anchor="start" direction="ltr" writing-mode="lr-tb" unicode-bidi="normal" text-decoration="none" transform="matrix(1 0 0 1 3669.85 7018)">col 2</text></g><g clip-path="url(#clip25)"><text fill="#595959" fill-opacity="1" font-family="Calibri,Calibri_MSFontService,sans-serif" font-style="normal" font-variant="normal" font-weight="400" font-stretch="normal" font-size="41" text-anchor="start" direction="ltr" writing-mode="lr-tb" unicode-bidi="normal" text-decoration="none" transform="matrix(1 0 0 1 3661.85 7069)">string</text></g><g clip-path="url(#clip26)"><text fill="#595959" fill-opacity="1" font-family="Calibri,Calibri_MSFontService,sans-serif" font-style="normal" font-variant="normal" font-weight="400" font-stretch="normal" font-size="41" text-anchor="start" direction="ltr" writing-mode="lr-tb" unicode-bidi="normal" text-decoration="none" transform="matrix(1 0 0 1 3846.89 7018)">col 3</text></g><g clip-path="url(#clip27)"><text fill="#595959" fill-opacity="1" font-family="Calibri,Calibri_MSFontService,sans-serif" font-style="normal" font-variant="normal" font-weight="400" font-stretch="normal" font-size="41" text-anchor="start" direction="ltr" writing-mode="lr-tb" unicode-bidi="normal" text-decoration="none" transform="matrix(1 0 0 1 3820.69 7069)">decimal</text></g><g clip-path="url(#clip28)"><text fill="#595959" fill-opacity="1" font-family="Calibri,Calibri_MSFontService,sans-serif" font-style="normal" font-variant="normal" font-weight="400" font-stretch="normal" font-size="41" text-anchor="start" direction="ltr" writing-mode="lr-tb" unicode-bidi="normal" text-decoration="none" transform="matrix(1 0 0 1 4013.48 7018)">col 30</text></g><g clip-path="url(#clip29)"><text fill="#595959" fill-opacity="1" font-family="Calibri,Calibri_MSFontService,sans-serif" font-style="normal" font-variant="normal" font-weight="400" font-stretch="normal" font-size="41" text-anchor="start" direction="ltr" writing-mode="lr-tb" unicode-bidi="normal" text-decoration="none" transform="matrix(1 0 0 1 4015.92 7069)">string</text></g><g clip-path="url(#clip30)"><text fill="#595959" fill-opacity="1" font-family="Calibri,Calibri_MSFontService,sans-serif" font-style="normal" font-variant="normal" font-weight="400" font-stretch="normal" font-size="41" text-anchor="start" direction="ltr" writing-mode="lr-tb" unicode-bidi="normal" text-decoration="none" transform="matrix(1 0 0 1 4200.97 7018)">col 4</text></g><g clip-path="url(#clip31)"><text fill="#595959" fill-opacity="1" font-family="Calibri,Calibri_MSFontService,sans-serif" font-style="normal" font-variant="normal" font-weight="400" font-stretch="normal" font-size="41" text-anchor="start" direction="ltr" writing-mode="lr-tb" unicode-bidi="normal" text-decoration="none" transform="matrix(1 0 0 1 4174.77 7069)">decimal</text></g><g clip-path="url(#clip32)"><text fill="#595959" fill-opacity="1" font-family="Calibri,Calibri_MSFontService,sans-serif" font-style="normal" font-variant="normal" font-weight="400" font-stretch="normal" font-size="41" text-anchor="start" direction="ltr" writing-mode="lr-tb" unicode-bidi="normal" text-decoration="none" transform="matrix(1 0 0 1 4378.01 7018)">col 5</text></g><g clip-path="url(#clip33)"><text fill="#595959" fill-opacity="1" font-family="Calibri,Calibri_MSFontService,sans-serif" font-style="normal" font-variant="normal" font-weight="400" font-stretch="normal" font-size="41" text-anchor="start" direction="ltr" writing-mode="lr-tb" unicode-bidi="normal" text-decoration="none" transform="matrix(1 0 0 1 4351.8 7069)">decimal</text></g><g clip-path="url(#clip34)"><text fill="#595959" fill-opacity="1" font-family="Calibri,Calibri_MSFontService,sans-serif" font-style="normal" font-variant="normal" font-weight="400" font-stretch="normal" font-size="41" text-anchor="start" direction="ltr" writing-mode="lr-tb" unicode-bidi="normal" text-decoration="none" transform="matrix(1 0 0 1 4555.05 7018)">col 6</text></g><g clip-path="url(#clip35)"><text fill="#595959" fill-opacity="1" font-family="Calibri,Calibri_MSFontService,sans-serif" font-style="normal" font-variant="normal" font-weight="400" font-stretch="normal" font-size="41" text-anchor="start" direction="ltr" writing-mode="lr-tb" unicode-bidi="normal" text-decoration="none" transform="matrix(1 0 0 1 4528.84 7069)">decimal</text></g><g clip-path="url(#clip36)"><text fill="#595959" fill-opacity="1" font-family="Calibri,Calibri_MSFontService,sans-serif" font-style="normal" font-variant="normal" font-weight="400" font-stretch="normal" font-size="41" text-anchor="start" direction="ltr" writing-mode="lr-tb" unicode-bidi="normal" text-decoration="none" transform="matrix(1 0 0 1 4732.09 7018)">col 7</text></g><g clip-path="url(#clip37)"><text fill="#595959" fill-opacity="1" font-family="Calibri,Calibri_MSFontService,sans-serif" font-style="normal" font-variant="normal" font-weight="400" font-stretch="normal" font-size="41" text-anchor="start" direction="ltr" writing-mode="lr-tb" unicode-bidi="normal" text-decoration="none" transform="matrix(1 0 0 1 4705.88 7069)">decimal</text></g><g clip-path="url(#clip38)"><text fill="#595959" fill-opacity="1" font-family="Calibri,Calibri_MSFontService,sans-serif" font-style="normal" font-variant="normal" font-weight="400" font-stretch="normal" font-size="41" text-anchor="start" direction="ltr" writing-mode="lr-tb" unicode-bidi="normal" text-decoration="none" transform="matrix(1 0 0 1 4909.12 7018)">col 9</text></g><g clip-path="url(#clip39)"><text fill="#595959" fill-opacity="1" font-family="Calibri,Calibri_MSFontService,sans-serif" font-style="normal" font-variant="normal" font-weight="400" font-stretch="normal" font-size="41" text-anchor="start" direction="ltr" writing-mode="lr-tb" unicode-bidi="normal" text-decoration="none" transform="matrix(1 0 0 1 4882.92 7069)">decimal</text></g><g clip-path="url(#clip40)"><text fill="#595959" fill-opacity="1" font-family="Calibri,Calibri_MSFontService,sans-serif" font-style="normal" font-variant="normal" font-weight="400" font-stretch="normal" font-size="46" text-anchor="start" direction="ltr" writing-mode="lr-tb" unicode-bidi="normal" text-decoration="none" transform="matrix(6.12323e-17 -1 1 6.12323e-17 3140.04 6792)">GB/s (log scale)</text></g><g clip-path="url(#clip41)"><text fill="#595959" fill-opacity="1" font-family="Calibri,Calibri_MSFontService,sans-serif" font-style="normal" font-variant="normal" font-weight="400" font-stretch="normal" font-size="64" text-anchor="start" direction="ltr" writing-mode="lr-tb" unicode-bidi="normal" text-decoration="none" transform="matrix(1 0 0 1 3737.93 6164)">Compression throughput</text></g><g clip-path="url(#clip42)"><rect x="3372" y="6243" width="22" height="22" fill="#70AD47" fill-opacity="1"/></g><g clip-path="url(#clip43)"><text fill="#595959" fill-opacity="1" font-family="Calibri,Calibri_MSFontService,sans-serif" font-style="normal" font-variant="normal" font-weight="400" font-stretch="normal" font-size="41" text-anchor="start" direction="ltr" writing-mode="lr-tb" unicode-bidi="normal" text-decoration="none" transform="matrix(1 0 0 1 3403.83 6264)">Cascaded</text></g><g clip-path="url(#clip44)"><rect x="3607" y="6243" width="22" height="22" fill="#548235" fill-opacity="1"/></g><g clip-path="url(#clip45)"><text fill="#595959" fill-opacity="1" font-family="Calibri,Calibri_MSFontService,sans-serif" font-style="normal" font-variant="normal" font-weight="400" font-stretch="normal" font-size="41" text-anchor="start" direction="ltr" writing-mode="lr-tb" unicode-bidi="normal" text-decoration="none" transform="matrix(1 0 0 1 3638.83 6264)">LZ4</text></g><g clip-path="url(#clip46)"><rect x="3740" y="6243" width="23" height="22" fill="#A6A6A6" fill-opacity="1"/></g><g clip-path="url(#clip47)"><text fill="#595959" fill-opacity="1" font-family="Calibri,Calibri_MSFontService,sans-serif" font-style="normal" font-variant="normal" font-weight="400" font-stretch="normal" font-size="41" text-anchor="start" direction="ltr" writing-mode="lr-tb" unicode-bidi="normal" text-decoration="none" transform="matrix(1 0 0 1 3772.42 6264)">Snappy</text></g><g clip-path="url(#clip48)"><rect x="3939" y="6243" width="22" height="22" fill="#A9D18E" fill-opacity="1"/></g><g clip-path="url(#clip49)"><text fill="#595959" fill-opacity="1" font-family="Calibri,Calibri_MSFontService,sans-serif" font-style="normal" font-variant="normal" font-weight="400" font-stretch="normal" font-size="41" text-anchor="start" direction="ltr" writing-mode="lr-tb" unicode-bidi="normal" text-decoration="none" transform="matrix(1 0 0 1 3970.86 6264)">GDeflate-0</text></g><g clip-path="url(#clip50)"><rect x="4196" y="6243" width="22.9995" height="22" fill="#5B9BD5" fill-opacity="1"/></g><g clip-path="url(#clip51)"><text fill="#595959" fill-opacity="1" font-family="Calibri,Calibri_MSFontService,sans-serif" font-style="normal" font-variant="normal" font-weight="400" font-stretch="normal" font-size="41" text-anchor="start" direction="ltr" writing-mode="lr-tb" unicode-bidi="normal" text-decoration="none" transform="matrix(1 0 0 1 4228.5 6264)">GDeflate-2</text></g><g clip-path="url(#clip52)"><rect x="4454" y="6243" width="23" height="22" fill="#264478" fill-opacity="1"/></g><g clip-path="url(#clip53)"><text fill="#595959" fill-opacity="1" font-family="Calibri,Calibri_MSFontService,sans-serif" font-style="normal" font-variant="normal" font-weight="400" font-stretch="normal" font-size="41" text-anchor="start" direction="ltr" writing-mode="lr-tb" unicode-bidi="normal" text-decoration="none" transform="matrix(1 0 0 1 4486.14 6264)">ANS</text></g><g clip-path="url(#clip54)"><rect x="4599" y="6243" width="23" height="22" fill="#767171" fill-opacity="1"/></g><g clip-path="url(#clip55)"><text fill="#595959" fill-opacity="1" font-family="Calibri,Calibri_MSFontService,sans-serif" font-style="normal" font-variant="normal" font-weight="400" font-stretch="normal" font-size="41" text-anchor="start" direction="ltr" writing-mode="lr-tb" unicode-bidi="normal" text-decoration="none" transform="matrix(1 0 0 1 4631.62 6264)">Bitcomp</text></g><rect x="3039.5" y="6068.5" width="2048" height="1042" stroke="#D9D9D9" stroke-width="3.4375" stroke-linecap="butt" stroke-linejoin="round" stroke-miterlimit="10" stroke-opacity="1" fill="none"/></g></svg>