<svg width="2058" height="1050" xmlns="http://www.w3.org/2000/svg" xmlns:xlink="http://www.w3.org/1999/xlink" overflow="hidden"><defs><clipPath id="clip0"><rect x="682" y="6031" width="2058" height="1050"/></clipPath><clipPath id="clip1"><rect x="687" y="6036" width="2049" height="1041"/></clipPath><clipPath id="clip2"><rect x="915" y="6311" width="1774" height="613"/></clipPath><clipPath id="clip3"><rect x="915" y="6311" width="1774" height="613"/></clipPath><clipPath id="clip4"><rect x="915" y="6311" width="1774" height="613"/></clipPath><clipPath id="clip5"><rect x="915" y="6311" width="1774" height="613"/></clipPath><clipPath id="clip6"><rect x="915" y="6311" width="1774" height="613"/></clipPath><clipPath id="clip7"><rect x="915" y="6311" width="1774" height="613"/></clipPath><clipPath id="clip8"><rect x="915" y="6311" width="1774" height="613"/></clipPath><clipPath id="clip9"><rect x="687" y="6036" width="2049" height="1041"/></clipPath><clipPath id="clip10"><rect x="687" y="6036" width="2049" height="1041"/></clipPath><clipPath id="clip11"><rect x="687" y="6036" width="2049" height="1041"/></clipPath><clipPath id="clip12"><rect x="687" y="6036" width="2049" height="1041"/></clipPath><clipPath id="clip13"><rect x="687" y="6036" width="2049" height="1041"/></clipPath><clipPath id="clip14"><rect x="687" y="6036" width="2049" height="1041"/></clipPath><clipPath id="clip15"><rect x="687" y="6036" width="2049" height="1041"/></clipPath><clipPath id="clip16"><rect x="687" y="6036" width="2049" height="1041"/></clipPath><clipPath id="clip17"><rect x="687" y="6036" width="2049" height="1041"/></clipPath><clipPath id="clip18"><rect x="687" y="6036" width="2049" height="1041"/></clipPath><clipPath id="clip19"><rect x="687" y="6036" width="2049" height="1041"/></clipPath><clipPath id="clip20"><rect x="687" y="6036" width="2049" height="1041"/></clipPath><clipPath id="clip21"><rect x="687" y="6036" width="2049" height="1041"/></clipPath><clipPath id="clip22"><rect x="687" y="6036" width="2049" height="1041"/></clipPath><clipPath id="clip23"><rect x="687" y="6036" width="2049" height="1041"/></clipPath><clipPath id="clip24"><rect x="687" y="6036" width="2049" height="1041"/></clipPath><clipPath id="clip25"><rect x="687" y="6036" width="2049" height="1041"/></clipPath><clipPath id="clip26"><rect x="687" y="6036" width="2049" height="1041"/></clipPath><clipPath id="clip27"><rect x="687" y="6036" width="2049" height="1041"/></clipPath><clipPath id="clip28"><rect x="687" y="6036" width="2049" height="1041"/></clipPath><clipPath id="clip29"><rect x="687" y="6036" width="2049" height="1041"/></clipPath><clipPath id="clip30"><rect x="687" y="6036" width="2049" height="1041"/></clipPath><clipPath id="clip31"><rect x="687" y="6036" width="2049" height="1041"/></clipPath><clipPath id="clip32"><rect x="687" y="6036" width="2049" height="1041"/></clipPath><clipPath id="clip33"><rect x="687" y="6036" width="2049" height="1041"/></clipPath><clipPath id="clip34"><rect x="687" y="6036" width="2049" height="1041"/></clipPath><clipPath id="clip35"><rect x="687" y="6036" width="2049" height="1041"/></clipPath><clipPath id="clip36"><rect x="687" y="6036" width="2049" height="1041"/></clipPath><clipPath id="clip37"><rect x="687" y="6036" width="2049" height="1041"/></clipPath><clipPath id="clip38"><rect x="687" y="6036" width="2049" height="1041"/></clipPath><clipPath id="clip39"><rect x="687" y="6036" width="2049" height="1041"/></clipPath><clipPath id="clip40"><rect x="687" y="6036" width="2049" height="1041"/></clipPath><clipPath id="clip41"><rect x="687" y="6036" width="2049" height="1041"/></clipPath><clipPath id="clip42"><rect x="687" y="6036" width="2049" height="1041"/></clipPath><clipPath id="clip43"><rect x="687" y="6036" width="2049" height="1041"/></clipPath><clipPath id="clip44"><rect x="687" y="6036" width="2049" height="1041"/></clipPath><clipPath id="clip45"><rect x="687" y="6036" width="2049" height="1041"/></clipPath><clipPath id="clip46"><rect x="687" y="6036" width="2049" height="1041"/></clipPath><clipPath id="clip47"><rect x="687" y="6036" width="2049" height="1041"/></clipPath><clipPath id="clip48"><rect x="687" y="6036" width="2049" height="1041"/></clipPath><clipPath id="clip49"><rect x="687" y="6036" width="2049" height="1041"/></clipPath><clipPath id="clip50"><rect x="687" y="6036" width="2049" height="1041"/></clipPath><clipPath id="clip51"><rect x="687" y="6036" width="2049" height="1041"/></clipPath><clipPath id="clip52"><rect x="687" y="6036" width="2049" height="1041"/></clipPath><clipPath id="clip53"><rect x="687" y="6036" width="2049" height="1041"/></clipPath></defs><g clip-path="url(#clip0)" transform="translate(-682 -6031)"><rect x="688" y="6036" width="2048" height="1042" fill="#FFFFFF" fill-opacity="1"/><g clip-path="url(#clip1)"><path d="M915.5 6833.72 2685.5 6833.72M915.5 6746.72 2685.5 6746.72M915.5 6659.72 2685.5 6659.72M915.5 6572.72 2685.5 6572.72M915.5 6485.71 2685.5 6485.71M915.5 6398.71 2685.5 6398.71M915.5 6311.5 2685.5 6311.5" stroke="#D9D9D9" stroke-width="3.4375" stroke-linecap="butt" stroke-linejoin="round" stroke-miterlimit="10" stroke-opacity="1" fill="none" fill-rule="nonzero"/></g><g clip-path="url(#clip2)"><path d="M933.031 6453.21 950.031 6453.21 950.031 6921 933.031 6921ZM1110.04 6542.21 1127.04 6542.21 1127.04 6921 1110.04 6921ZM1287.04 6777.22 1304.04 6777.22 1304.04 6921 1287.04 6921ZM1464.05 6458.21 1481.05 6458.21 1481.05 6921 1464.05 6921ZM1641.05 6570.22 1658.05 6570.22 1658.05 6921 1641.05 6921ZM1996.07 6915.23 2012.07 6915.23 2012.07 6921 1996.07 6921ZM2173.07 6807.22 2189.07 6807.22 2189.07 6921 2173.07 6921ZM2350.08 6891.23 2366.08 6891.23 2366.08 6921 2350.08 6921ZM2527.08 6515.21 2543.08 6515.21 2543.08 6921 2527.08 6921Z" fill="#70AD47" fill-rule="nonzero" fill-opacity="1"/></g><g clip-path="url(#clip3)"><path d="M954.031 6461.21 971.032 6461.21 971.032 6921 954.031 6921ZM1131.04 6532.21 1148.04 6532.21 1148.04 6921 1131.04 6921ZM1308.04 6382.21 1325.04 6382.21 1325.04 6921 1308.04 6921ZM1485.05 6517.21 1502.05 6517.21 1502.05 6921 1485.05 6921ZM1662.05 6565.22 1679.06 6565.22 1679.06 6921 1662.05 6921ZM1839.06 6908.23 1856.06 6908.23 1856.06 6921 1839.06 6921ZM2016.07 6702.22 2033.07 6702.22 2033.07 6921 2016.07 6921ZM2193.07 6707.22 2210.07 6707.22 2210.07 6921 2193.07 6921ZM2370.08 6832.22 2387.08 6832.22 2387.08 6921 2370.08 6921ZM2547.08 6533.21 2564.08 6533.21 2564.08 6921 2547.08 6921Z" fill="#548235" fill-rule="nonzero" fill-opacity="1"/></g><g clip-path="url(#clip4)"><path d="M975.032 6572.22 991.033 6572.22 991.033 6921 975.032 6921ZM1152.04 6560.22 1168.04 6560.22 1168.04 6921 1152.04 6921ZM1329.04 6615.22 1345.04 6615.22 1345.04 6921 1329.04 6921ZM1506.05 6566.22 1522.05 6566.22 1522.05 6921 1506.05 6921ZM1683.06 6569.22 1699.06 6569.22 1699.06 6921 1683.06 6921ZM1860.06 6907.23 1876.06 6907.23 1876.06 6921 1860.06 6921ZM2037.07 6697.22 2054.07 6697.22 2054.07 6921 2037.07 6921ZM2214.07 6719.22 2231.07 6719.22 2231.07 6921 2214.07 6921ZM2391.08 6815.22 2408.08 6815.22 2408.08 6921 2391.08 6921ZM2568.08 6587.22 2585.08 6587.22 2585.08 6921 2568.08 6921Z" fill="#A6A6A6" fill-rule="nonzero" fill-opacity="1"/></g><g clip-path="url(#clip5)"><path d="M996.033 6469.21 1012.03 6469.21 1012.03 6921 996.033 6921ZM1173.04 6505.21 1189.04 6505.21 1189.04 6921 1173.04 6921ZM1350.04 6489.21 1366.04 6489.21 1366.04 6921 1350.04 6921ZM1527.05 6491.21 1543.05 6491.21 1543.05 6921 1527.05 6921ZM1704.06 6533.21 1720.06 6533.21 1720.06 6921 1704.06 6921ZM1881.06 6892.23 1897.06 6892.23 1897.06 6921 1881.06 6921ZM2058.07 6671.22 2074.07 6671.22 2074.07 6921 2058.07 6921ZM2235.07 6688.22 2251.07 6688.22 2251.07 6921 2235.07 6921ZM2412.08 6801.22 2428.08 6801.22 2428.08 6921 2412.08 6921ZM2589.08 6505.21 2605.09 6505.21 2605.09 6921 2589.08 6921Z" fill="#A9D18E" fill-rule="nonzero" fill-opacity="1"/></g><g clip-path="url(#clip6)"><path d="M1017.03 6863.23 1033.03 6863.23 1033.03 6921 1017.03 6921ZM1194.04 6735.22 1210.04 6735.22 1210.04 6921 1194.04 6921ZM1371.04 6688.22 1387.05 6688.22 1387.05 6921 1371.04 6921ZM1548.05 6775.22 1564.05 6775.22 1564.05 6921 1548.05 6921ZM1725.06 6693.22 1741.06 6693.22 1741.06 6921 1725.06 6921ZM1902.06 6903.23 1918.06 6903.23 1918.06 6921 1902.06 6921ZM2079.07 6807.22 2095.07 6807.22 2095.07 6921 2079.07 6921ZM2256.07 6823.22 2272.07 6823.22 2272.07 6921 2256.07 6921ZM2433.08 6823.22 2449.08 6823.22 2449.08 6921 2433.08 6921ZM2610.09 6851.23 2626.09 6851.23 2626.09 6921 2610.09 6921Z" fill="#5B9BD5" fill-rule="nonzero" fill-opacity="1"/></g><g clip-path="url(#clip7)"><path d="M1037.03 6862.23 1054.03 6862.23 1054.03 6921 1037.03 6921ZM1214.04 6721.22 1231.04 6721.22 1231.04 6921 1214.04 6921ZM1391.05 6619.22 1408.05 6619.22 1408.05 6921 1391.05 6921ZM1568.05 6775.22 1585.05 6775.22 1585.05 6921 1568.05 6921ZM1745.06 6651.22 1762.06 6651.22 1762.06 6921 1745.06 6921ZM1923.06 6903.23 1939.06 6903.23 1939.06 6921 1923.06 6921ZM2100.07 6806.22 2116.07 6806.22 2116.07 6921 2100.07 6921ZM2277.07 6825.22 2293.08 6825.22 2293.08 6921 2277.07 6921ZM2454.08 6825.22 2470.08 6825.22 2470.08 6921 2454.08 6921ZM2631.09 6849.22 2647.09 6849.22 2647.09 6921 2631.09 6921Z" fill="#264478" fill-rule="nonzero" fill-opacity="1"/></g><g clip-path="url(#clip8)"><path d="M1058.03 6534.21 1075.04 6534.21 1075.04 6921 1058.03 6921ZM1235.04 6616.22 1252.04 6616.22 1252.04 6921 1235.04 6921ZM1412.05 6827.22 1429.05 6827.22 1429.05 6921 1412.05 6921ZM1589.05 6502.21 1606.05 6502.21 1606.05 6921 1589.05 6921ZM1766.06 6627.22 1783.06 6627.22 1783.06 6921 1766.06 6921ZM2120.07 6910.23 2137.07 6910.23 2137.07 6921 2120.07 6921ZM2297.08 6883.23 2314.08 6883.23 2314.08 6921 2297.08 6921ZM2474.08 6898.23 2491.08 6898.23 2491.08 6921 2474.08 6921ZM2651.09 6634.22 2668.09 6634.22 2668.09 6921 2651.09 6921Z" fill="#767171" fill-rule="nonzero" fill-opacity="1"/></g><g clip-path="url(#clip9)"><path d="M915.5 6921.5 2685.5 6921.5" stroke="#D9D9D9" stroke-width="3.4375" stroke-linecap="butt" stroke-linejoin="round" stroke-miterlimit="10" stroke-opacity="1" fill="none" fill-rule="evenodd"/></g><g clip-path="url(#clip10)"><text fill="#595959" fill-opacity="1" font-family="Calibri,Calibri_MSFontService,sans-serif" font-style="normal" font-variant="normal" font-weight="400" font-stretch="normal" font-size="41" text-anchor="start" direction="ltr" writing-mode="lr-tb" unicode-bidi="normal" text-decoration="none" transform="matrix(1 0 0 1 856.282 6931)">1</text></g><g clip-path="url(#clip11)"><text fill="#595959" fill-opacity="1" font-family="Calibri,Calibri_MSFontService,sans-serif" font-style="normal" font-variant="normal" font-weight="400" font-stretch="normal" font-size="41" text-anchor="start" direction="ltr" writing-mode="lr-tb" unicode-bidi="normal" text-decoration="none" transform="matrix(1 0 0 1 856.282 6844)">2</text></g><g clip-path="url(#clip12)"><text fill="#595959" fill-opacity="1" font-family="Calibri,Calibri_MSFontService,sans-serif" font-style="normal" font-variant="normal" font-weight="400" font-stretch="normal" font-size="41" text-anchor="start" direction="ltr" writing-mode="lr-tb" unicode-bidi="normal" text-decoration="none" transform="matrix(1 0 0 1 856.282 6757)">4</text></g><g clip-path="url(#clip13)"><text fill="#595959" fill-opacity="1" font-family="Calibri,Calibri_MSFontService,sans-serif" font-style="normal" font-variant="normal" font-weight="400" font-stretch="normal" font-size="41" text-anchor="start" direction="ltr" writing-mode="lr-tb" unicode-bidi="normal" text-decoration="none" transform="matrix(1 0 0 1 856.282 6670)">8</text></g><g clip-path="url(#clip14)"><text fill="#595959" fill-opacity="1" font-family="Calibri,Calibri_MSFontService,sans-serif" font-style="normal" font-variant="normal" font-weight="400" font-stretch="normal" font-size="41" text-anchor="start" direction="ltr" writing-mode="lr-tb" unicode-bidi="normal" text-decoration="none" transform="matrix(1 0 0 1 835.382 6583)">16</text></g><g clip-path="url(#clip15)"><text fill="#595959" fill-opacity="1" font-family="Calibri,Calibri_MSFontService,sans-serif" font-style="normal" font-variant="normal" font-weight="400" font-stretch="normal" font-size="41" text-anchor="start" direction="ltr" writing-mode="lr-tb" unicode-bidi="normal" text-decoration="none" transform="matrix(1 0 0 1 835.382 6495)">32</text></g><g clip-path="url(#clip16)"><text fill="#595959" fill-opacity="1" font-family="Calibri,Calibri_MSFontService,sans-serif" font-style="normal" font-variant="normal" font-weight="400" font-stretch="normal" font-size="41" text-anchor="start" direction="ltr" writing-mode="lr-tb" unicode-bidi="normal" text-decoration="none" transform="matrix(1 0 0 1 835.382 6408)">64</text></g><g clip-path="url(#clip17)"><text fill="#595959" fill-opacity="1" font-family="Calibri,Calibri_MSFontService,sans-serif" font-style="normal" font-variant="normal" font-weight="400" font-stretch="normal" font-size="41" text-anchor="start" direction="ltr" writing-mode="lr-tb" unicode-bidi="normal" text-decoration="none" transform="matrix(1 0 0 1 814.482 6321)">128</text></g><g clip-path="url(#clip18)"><text fill="#595959" fill-opacity="1" font-family="Calibri,Calibri_MSFontService,sans-serif" font-style="normal" font-variant="normal" font-weight="400" font-stretch="normal" font-size="41" text-anchor="start" direction="ltr" writing-mode="lr-tb" unicode-bidi="normal" text-decoration="none" transform="matrix(1 0 0 1 964.528 6986)">col 0</text></g><g clip-path="url(#clip19)"><text fill="#595959" fill-opacity="1" font-family="Calibri,Calibri_MSFontService,sans-serif" font-style="normal" font-variant="normal" font-weight="400" font-stretch="normal" font-size="41" text-anchor="start" direction="ltr" writing-mode="lr-tb" unicode-bidi="normal" text-decoration="none" transform="matrix(1 0 0 1 967.817 7037)">long</text></g><g clip-path="url(#clip20)"><text fill="#595959" fill-opacity="1" font-family="Calibri,Calibri_MSFontService,sans-serif" font-style="normal" font-variant="normal" font-weight="400" font-stretch="normal" font-size="41" text-anchor="start" direction="ltr" writing-mode="lr-tb" unicode-bidi="normal" text-decoration="none" transform="matrix(1 0 0 1 1131.12 6986)">col 12</text></g><g clip-path="url(#clip21)"><text fill="#595959" fill-opacity="1" font-family="Calibri,Calibri_MSFontService,sans-serif" font-style="normal" font-variant="normal" font-weight="400" font-stretch="normal" font-size="41" text-anchor="start" direction="ltr" writing-mode="lr-tb" unicode-bidi="normal" text-decoration="none" transform="matrix(1 0 0 1 1133.56 7037)">string</text></g><g clip-path="url(#clip22)"><text fill="#595959" fill-opacity="1" font-family="Calibri,Calibri_MSFontService,sans-serif" font-style="normal" font-variant="normal" font-weight="400" font-stretch="normal" font-size="41" text-anchor="start" direction="ltr" writing-mode="lr-tb" unicode-bidi="normal" text-decoration="none" transform="matrix(1 0 0 1 1318.61 6986)">col 2</text></g><g clip-path="url(#clip23)"><text fill="#595959" fill-opacity="1" font-family="Calibri,Calibri_MSFontService,sans-serif" font-style="normal" font-variant="normal" font-weight="400" font-stretch="normal" font-size="41" text-anchor="start" direction="ltr" writing-mode="lr-tb" unicode-bidi="normal" text-decoration="none" transform="matrix(1 0 0 1 1310.6 7037)">string</text></g><g clip-path="url(#clip24)"><text fill="#595959" fill-opacity="1" font-family="Calibri,Calibri_MSFontService,sans-serif" font-style="normal" font-variant="normal" font-weight="400" font-stretch="normal" font-size="41" text-anchor="start" direction="ltr" writing-mode="lr-tb" unicode-bidi="normal" text-decoration="none" transform="matrix(1 0 0 1 1495.64 6986)">col 3</text></g><g clip-path="url(#clip25)"><text fill="#595959" fill-opacity="1" font-family="Calibri,Calibri_MSFontService,sans-serif" font-style="normal" font-variant="normal" font-weight="400" font-stretch="normal" font-size="41" text-anchor="start" direction="ltr" writing-mode="lr-tb" unicode-bidi="normal" text-decoration="none" transform="matrix(1 0 0 1 1469.44 7037)">decimal</text></g><g clip-path="url(#clip26)"><text fill="#595959" fill-opacity="1" font-family="Calibri,Calibri_MSFontService,sans-serif" font-style="normal" font-variant="normal" font-weight="400" font-stretch="normal" font-size="41" text-anchor="start" direction="ltr" writing-mode="lr-tb" unicode-bidi="normal" text-decoration="none" transform="matrix(1 0 0 1 1662.23 6986)">col 30</text></g><g clip-path="url(#clip27)"><text fill="#595959" fill-opacity="1" font-family="Calibri,Calibri_MSFontService,sans-serif" font-style="normal" font-variant="normal" font-weight="400" font-stretch="normal" font-size="41" text-anchor="start" direction="ltr" writing-mode="lr-tb" unicode-bidi="normal" text-decoration="none" transform="matrix(1 0 0 1 1664.67 7037)">string</text></g><g clip-path="url(#clip28)"><text fill="#595959" fill-opacity="1" font-family="Calibri,Calibri_MSFontService,sans-serif" font-style="normal" font-variant="normal" font-weight="400" font-stretch="normal" font-size="41" text-anchor="start" direction="ltr" writing-mode="lr-tb" unicode-bidi="normal" text-decoration="none" transform="matrix(1 0 0 1 1849.72 6986)">col 4</text></g><g clip-path="url(#clip29)"><text fill="#595959" fill-opacity="1" font-family="Calibri,Calibri_MSFontService,sans-serif" font-style="normal" font-variant="normal" font-weight="400" font-stretch="normal" font-size="41" text-anchor="start" direction="ltr" writing-mode="lr-tb" unicode-bidi="normal" text-decoration="none" transform="matrix(1 0 0 1 1823.52 7037)">decimal</text></g><g clip-path="url(#clip30)"><text fill="#595959" fill-opacity="1" font-family="Calibri,Calibri_MSFontService,sans-serif" font-style="normal" font-variant="normal" font-weight="400" font-stretch="normal" font-size="41" text-anchor="start" direction="ltr" writing-mode="lr-tb" unicode-bidi="normal" text-decoration="none" transform="matrix(1 0 0 1 2026.76 6986)">col 5</text></g><g clip-path="url(#clip31)"><text fill="#595959" fill-opacity="1" font-family="Calibri,Calibri_MSFontService,sans-serif" font-style="normal" font-variant="normal" font-weight="400" font-stretch="normal" font-size="41" text-anchor="start" direction="ltr" writing-mode="lr-tb" unicode-bidi="normal" text-decoration="none" transform="matrix(1 0 0 1 2000.55 7037)">decimal</text></g><g clip-path="url(#clip32)"><text fill="#595959" fill-opacity="1" font-family="Calibri,Calibri_MSFontService,sans-serif" font-style="normal" font-variant="normal" font-weight="400" font-stretch="normal" font-size="41" text-anchor="start" direction="ltr" writing-mode="lr-tb" unicode-bidi="normal" text-decoration="none" transform="matrix(1 0 0 1 2203.8 6986)">col 6</text></g><g clip-path="url(#clip33)"><text fill="#595959" fill-opacity="1" font-family="Calibri,Calibri_MSFontService,sans-serif" font-style="normal" font-variant="normal" font-weight="400" font-stretch="normal" font-size="41" text-anchor="start" direction="ltr" writing-mode="lr-tb" unicode-bidi="normal" text-decoration="none" transform="matrix(1 0 0 1 2177.59 7037)">decimal</text></g><g clip-path="url(#clip34)"><text fill="#595959" fill-opacity="1" font-family="Calibri,Calibri_MSFontService,sans-serif" font-style="normal" font-variant="normal" font-weight="400" font-stretch="normal" font-size="41" text-anchor="start" direction="ltr" writing-mode="lr-tb" unicode-bidi="normal" text-decoration="none" transform="matrix(1 0 0 1 2380.84 6986)">col 7</text></g><g clip-path="url(#clip35)"><text fill="#595959" fill-opacity="1" font-family="Calibri,Calibri_MSFontService,sans-serif" font-style="normal" font-variant="normal" font-weight="400" font-stretch="normal" font-size="41" text-anchor="start" direction="ltr" writing-mode="lr-tb" unicode-bidi="normal" text-decoration="none" transform="matrix(1 0 0 1 2354.63 7037)">decimal</text></g><g clip-path="url(#clip36)"><text fill="#595959" fill-opacity="1" font-family="Calibri,Calibri_MSFontService,sans-serif" font-style="normal" font-variant="normal" font-weight="400" font-stretch="normal" font-size="41" text-anchor="start" direction="ltr" writing-mode="lr-tb" unicode-bidi="normal" text-decoration="none" transform="matrix(1 0 0 1 2557.87 6986)">col 9</text></g><g clip-path="url(#clip37)"><text fill="#595959" fill-opacity="1" font-family="Calibri,Calibri_MSFontService,sans-serif" font-style="normal" font-variant="normal" font-weight="400" font-stretch="normal" font-size="41" text-anchor="start" direction="ltr" writing-mode="lr-tb" unicode-bidi="normal" text-decoration="none" transform="matrix(1 0 0 1 2531.67 7037)">decimal</text></g><g clip-path="url(#clip38)"><text fill="#595959" fill-opacity="1" font-family="Calibri,Calibri_MSFontService,sans-serif" font-style="normal" font-variant="normal" font-weight="400" font-stretch="normal" font-size="46" text-anchor="start" direction="ltr" writing-mode="lr-tb" unicode-bidi="normal" text-decoration="none" transform="matrix(6.12323e-17 -1 1 6.12323e-17 788.792 6763)">Ratio (log scale)</text></g><g clip-path="url(#clip39)"><text fill="#595959" fill-opacity="1" font-family="Calibri,Calibri_MSFontService,sans-serif" font-style="normal" font-variant="normal" font-weight="400" font-stretch="normal" font-size="64" text-anchor="start" direction="ltr" writing-mode="lr-tb" unicode-bidi="normal" text-decoration="none" transform="matrix(1 0 0 1 1461.96 6132)">Compression ratios</text></g><g clip-path="url(#clip40)"><rect x="1020" y="6211" width="23" height="22" fill="#70AD47" fill-opacity="1"/></g><g clip-path="url(#clip41)"><text fill="#595959" fill-opacity="1" font-family="Calibri,Calibri_MSFontService,sans-serif" font-style="normal" font-variant="normal" font-weight="400" font-stretch="normal" font-size="41" text-anchor="start" direction="ltr" writing-mode="lr-tb" unicode-bidi="normal" text-decoration="none" transform="matrix(1 0 0 1 1052.58 6232)">Cascaded</text></g><g clip-path="url(#clip42)"><rect x="1255" y="6211" width="23" height="22" fill="#548235" fill-opacity="1"/></g><g clip-path="url(#clip43)"><text fill="#595959" fill-opacity="1" font-family="Calibri,Calibri_MSFontService,sans-serif" font-style="normal" font-variant="normal" font-weight="400" font-stretch="normal" font-size="41" text-anchor="start" direction="ltr" writing-mode="lr-tb" unicode-bidi="normal" text-decoration="none" transform="matrix(1 0 0 1 1287.58 6232)">LZ4</text></g><g clip-path="url(#clip44)"><rect x="1389" y="6211" width="23" height="22" fill="#A6A6A6" fill-opacity="1"/></g><g clip-path="url(#clip45)"><text fill="#595959" fill-opacity="1" font-family="Calibri,Calibri_MSFontService,sans-serif" font-style="normal" font-variant="normal" font-weight="400" font-stretch="normal" font-size="41" text-anchor="start" direction="ltr" writing-mode="lr-tb" unicode-bidi="normal" text-decoration="none" transform="matrix(1 0 0 1 1421.17 6232)">Snappy</text></g><g clip-path="url(#clip46)"><rect x="1587" y="6211" width="23" height="22" fill="#A9D18E" fill-opacity="1"/></g><g clip-path="url(#clip47)"><text fill="#595959" fill-opacity="1" font-family="Calibri,Calibri_MSFontService,sans-serif" font-style="normal" font-variant="normal" font-weight="400" font-stretch="normal" font-size="41" text-anchor="start" direction="ltr" writing-mode="lr-tb" unicode-bidi="normal" text-decoration="none" transform="matrix(1 0 0 1 1619.61 6232)">GDeflate-0</text></g><g clip-path="url(#clip48)"><rect x="1845" y="6211" width="23" height="22" fill="#5B9BD5" fill-opacity="1"/></g><g clip-path="url(#clip49)"><text fill="#595959" fill-opacity="1" font-family="Calibri,Calibri_MSFontService,sans-serif" font-style="normal" font-variant="normal" font-weight="400" font-stretch="normal" font-size="41" text-anchor="start" direction="ltr" writing-mode="lr-tb" unicode-bidi="normal" text-decoration="none" transform="matrix(1 0 0 1 1877.25 6232)">GDeflate-2</text></g><g clip-path="url(#clip50)"><rect x="2103" y="6211" width="22" height="22" fill="#264478" fill-opacity="1"/></g><g clip-path="url(#clip51)"><text fill="#595959" fill-opacity="1" font-family="Calibri,Calibri_MSFontService,sans-serif" font-style="normal" font-variant="normal" font-weight="400" font-stretch="normal" font-size="41" text-anchor="start" direction="ltr" writing-mode="lr-tb" unicode-bidi="normal" text-decoration="none" transform="matrix(1 0 0 1 2134.89 6232)">ANS</text></g><g clip-path="url(#clip52)"><rect x="2248" y="6211" width="23" height="22" fill="#767171" fill-opacity="1"/></g><g clip-path="url(#clip53)"><text fill="#595959" fill-opacity="1" font-family="Calibri,Calibri_MSFontService,sans-serif" font-style="normal" font-variant="normal" font-weight="400" font-stretch="normal" font-size="41" text-anchor="start" direction="ltr" writing-mode="lr-tb" unicode-bidi="normal" text-decoration="none" transform="matrix(1 0 0 1 2280.37 6232)">Bitcomp</text></g><rect x="688.5" y="6036.5" width="2048" height="1042" stroke="#D9D9D9" stroke-width="3.4375" stroke-linecap="butt" stroke-linejoin="round" stroke-miterlimit="10" stroke-opacity="1" fill="none"/></g></svg>