<svg width="2058" height="1050" xmlns="http://www.w3.org/2000/svg" xmlns:xlink="http://www.w3.org/1999/xlink" overflow="hidden"><defs><clipPath id="clip0"><rect x="5234" y="6063" width="2058" height="1050"/></clipPath><clipPath id="clip1"><rect x="5238" y="6068" width="2049" height="1041"/></clipPath><clipPath id="clip2"><rect x="5466" y="6343" width="1774" height="613"/></clipPath><clipPath id="clip3"><rect x="5466" y="6343" width="1774" height="613"/></clipPath><clipPath id="clip4"><rect x="5466" y="6343" width="1774" height="613"/></clipPath><clipPath id="clip5"><rect x="5466" y="6343" width="1774" height="613"/></clipPath><clipPath id="clip6"><rect x="5466" y="6343" width="1774" height="613"/></clipPath><clipPath id="clip7"><rect x="5466" y="6343" width="1774" height="613"/></clipPath><clipPath id="clip8"><rect x="5466" y="6343" width="1774" height="613"/></clipPath><clipPath id="clip9"><rect x="5238" y="6068" width="2049" height="1041"/></clipPath><clipPath id="clip10"><rect x="5238" y="6068" width="2049" height="1041"/></clipPath><clipPath id="clip11"><rect x="5238" y="6068" width="2049" height="1041"/></clipPath><clipPath id="clip12"><rect x="5238" y="6068" width="2049" height="1041"/></clipPath><clipPath id="clip13"><rect x="5238" y="6068" width="2049" height="1041"/></clipPath><clipPath id="clip14"><rect x="5238" y="6068" width="2049" height="1041"/></clipPath><clipPath id="clip15"><rect x="5238" y="6068" width="2049" height="1041"/></clipPath><clipPath id="clip16"><rect x="5238" y="6068" width="2049" height="1041"/></clipPath><clipPath id="clip17"><rect x="5238" y="6068" width="2049" height="1041"/></clipPath><clipPath id="clip18"><rect x="5238" y="6068" width="2049" height="1041"/></clipPath><clipPath id="clip19"><rect x="5238" y="6068" width="2049" height="1041"/></clipPath><clipPath id="clip20"><rect x="5238" y="6068" width="2049" height="1041"/></clipPath><clipPath id="clip21"><rect x="5238" y="6068" width="2049" height="1041"/></clipPath><clipPath id="clip22"><rect x="5238" y="6068" width="2049" height="1041"/></clipPath><clipPath id="clip23"><rect x="5238" y="6068" width="2049" height="1041"/></clipPath><clipPath id="clip24"><rect x="5238" y="6068" width="2049" height="1041"/></clipPath><clipPath id="clip25"><rect x="5238" y="6068" width="2049" height="1041"/></clipPath><clipPath id="clip26"><rect x="5238" y="6068" width="2049" height="1041"/></clipPath><clipPath id="clip27"><rect x="5238" y="6068" width="2049" height="1041"/></clipPath><clipPath id="clip28"><rect x="5238" y="6068" width="2049" height="1041"/></clipPath><clipPath id="clip29"><rect x="5238" y="6068" width="2049" height="1041"/></clipPath><clipPath id="clip30"><rect x="5238" y="6068" width="2049" height="1041"/></clipPath><clipPath id="clip31"><rect x="5238" y="6068" width="2049" height="1041"/></clipPath><clipPath id="clip32"><rect x="5238" y="6068" width="2049" height="1041"/></clipPath><clipPath id="clip33"><rect x="5238" y="6068" width="2049" height="1041"/></clipPath><clipPath id="clip34"><rect x="5238" y="6068" width="2049" height="1041"/></clipPath><clipPath id="clip35"><rect x="5238" y="6068" width="2049" height="1041"/></clipPath><clipPath id="clip36"><rect x="5238" y="6068" width="2049" height="1041"/></clipPath><clipPath id="clip37"><rect x="5238" y="6068" width="2049" height="1041"/></clipPath><clipPath id="clip38"><rect x="5238" y="6068" width="2049" height="1041"/></clipPath><clipPath id="clip39"><rect x="5238" y="6068" width="2049" height="1041"/></clipPath><clipPath id="clip40"><rect x="5238" y="6068" width="2049" height="1041"/></clipPath><clipPath id="clip41"><rect x="5238" y="6068" width="2049" height="1041"/></clipPath><clipPath id="clip42"><rect x="5238" y="6068" width="2049" height="1041"/></clipPath><clipPath id="clip43"><rect x="5238" y="6068" width="2049" height="1041"/></clipPath><clipPath id="clip44"><rect x="5238" y="6068" width="2049" height="1041"/></clipPath><clipPath id="clip45"><rect x="5238" y="6068" width="2049" height="1041"/></clipPath><clipPath id="clip46"><rect x="5238" y="6068" width="2049" height="1041"/></clipPath><clipPath id="clip47"><rect x="5238" y="6068" width="2049" height="1041"/></clipPath><clipPath id="clip48"><rect x="5238" y="6068" width="2049" height="1041"/></clipPath><clipPath id="clip49"><rect x="5238" y="6068" width="2049" height="1041"/></clipPath><clipPath id="clip50"><rect x="5238" y="6068" width="2049" height="1041"/></clipPath><clipPath id="clip51"><rect x="5238" y="6068" width="2049" height="1041"/></clipPath><clipPath id="clip52"><rect x="5238" y="6068" width="2049" height="1041"/></clipPath></defs><g clip-path="url(#clip0)" transform="translate(-5234 -6063)"><rect x="5239" y="6068" width="2048" height="1042" fill="#FFFFFF" fill-opacity="1"/><g clip-path="url(#clip1)"><path d="M5466.5 6851.73 7237.5 6851.73M5466.5 6749.72 7237.5 6749.72M5466.5 6647.72 7237.5 6647.72M5466.5 6546.71 7237.5 6546.71M5466.5 6444.71 7237.5 6444.71M5466.5 6343.5 7237.5 6343.5" stroke="#D9D9D9" stroke-width="3.4375" stroke-linecap="butt" stroke-linejoin="round" stroke-miterlimit="10" stroke-opacity="1" fill="none" fill-rule="nonzero"/></g><g clip-path="url(#clip2)"><path d="M5484.18 6606.22 5501.18 6606.22 5501.18 6953 5484.18 6953ZM5661.19 6645.22 5678.19 6645.22 5678.19 6953 5661.19 6953ZM5839.19 6698.22 5855.19 6698.22 5855.19 6953 5839.19 6953ZM6016.2 6548.21 6032.2 6548.21 6032.2 6953 6016.2 6953ZM6193.2 6574.22 6209.2 6574.22 6209.2 6953 6193.2 6953ZM6370.21 6449.21 6386.21 6449.21 6386.21 6953 6370.21 6953ZM6547.21 6855.23 6563.22 6855.23 6563.22 6953 6547.21 6953ZM6724.22 6830.22 6740.22 6830.22 6740.22 6953 6724.22 6953ZM6901.23 6850.23 6917.23 6850.23 6917.23 6953 6901.23 6953ZM7078.23 6533.21 7094.23 6533.21 7094.23 6953 7078.23 6953Z" fill="#70AD47" fill-rule="nonzero" fill-opacity="1"/></g><g clip-path="url(#clip3)"><path d="M5505.18 6626.22 5522.18 6626.22 5522.18 6953 5505.18 6953ZM5682.19 6925.23 5699.19 6925.23 5699.19 6953 5682.19 6953ZM5859.19 6674.22 5876.19 6674.22 5876.19 6953 5859.19 6953ZM6036.2 6893.23 6053.2 6893.23 6053.2 6953 6036.2 6953ZM6213.2 6927.23 6230.2 6927.23 6230.2 6953 6213.2 6953ZM6390.21 6883.23 6407.21 6883.23 6407.21 6953 6390.21 6953ZM6567.22 6897.23 6584.22 6897.23 6584.22 6953 6567.22 6953ZM6744.22 6896.23 6761.22 6896.23 6761.22 6953 6744.22 6953ZM6922.23 6931.23 6938.23 6931.23 6938.23 6953 6922.23 6953ZM7099.23 6853.23 7115.23 6853.23 7115.23 6953 7099.23 6953Z" fill="#548235" fill-rule="nonzero" fill-opacity="1"/></g><g clip-path="url(#clip4)"><path d="M5526.18 6806.22 5542.18 6806.22 5542.18 6953 5526.18 6953ZM5703.19 6793.22 5719.19 6793.22 5719.19 6953 5703.19 6953ZM5880.19 6880.23 5896.19 6880.23 5896.19 6953 5880.19 6953ZM6057.2 6865.23 6074.2 6865.23 6074.2 6953 6057.2 6953ZM6234.2 6858.23 6251.21 6858.23 6251.21 6953 6234.2 6953ZM6411.21 6907.23 6428.21 6907.23 6428.21 6953 6411.21 6953ZM6588.22 6888.23 6605.22 6888.23 6605.22 6953 6588.22 6953ZM6765.22 6898.23 6782.22 6898.23 6782.22 6953 6765.22 6953ZM6942.23 6918.23 6959.23 6918.23 6959.23 6953 6942.23 6953ZM7119.23 6874.23 7136.23 6874.23 7136.23 6953 7119.23 6953Z" fill="#A6A6A6" fill-rule="nonzero" fill-opacity="1"/></g><g clip-path="url(#clip5)"><path d="M5547.18 6726.22 5563.18 6726.22 5563.18 6953 5547.18 6953ZM5724.19 6840.22 5740.19 6840.22 5740.19 6953 5724.19 6953ZM5901.19 6707.22 5917.19 6707.22 5917.19 6953 5901.19 6953ZM6078.2 6792.22 6094.2 6792.22 6094.2 6953 6078.2 6953ZM6255.21 6839.22 6271.21 6839.22 6271.21 6953 6255.21 6953ZM6432.21 6911.23 6448.21 6911.23 6448.21 6953 6432.21 6953ZM6609.22 6822.22 6625.22 6822.22 6625.22 6953 6609.22 6953ZM6786.22 6833.22 6802.22 6833.22 6802.22 6953 6786.22 6953ZM6963.23 6874.23 6979.23 6874.23 6979.23 6953 6963.23 6953ZM7140.23 6781.22 7157.23 6781.22 7157.23 6953 7140.23 6953Z" fill="#A9D18E" fill-rule="nonzero" fill-opacity="1"/></g><g clip-path="url(#clip6)"><path d="M5568.18 6901.23 5584.18 6901.23 5584.18 6953 5568.18 6953ZM5745.19 6904.23 5761.19 6904.23 5761.19 6953 5745.19 6953ZM5922.19 6892.23 5938.19 6892.23 5938.19 6953 5922.19 6953ZM6099.2 6904.23 6115.2 6904.23 6115.2 6953 6099.2 6953ZM6276.21 6903.23 6292.21 6903.23 6292.21 6953 6276.21 6953ZM6453.21 6906.23 6469.21 6906.23 6469.21 6953 6453.21 6953ZM6630.22 6904.23 6646.22 6904.23 6646.22 6953 6630.22 6953ZM6807.22 6904.23 6823.22 6904.23 6823.22 6953 6807.22 6953ZM6984.23 6904.23 7000.23 6904.23 7000.23 6953 6984.23 6953ZM7161.23 6905.23 7177.24 6905.23 7177.24 6953 7161.23 6953Z" fill="#5B9BD5" fill-rule="nonzero" fill-opacity="1"/></g><g clip-path="url(#clip7)"><path d="M5588.18 6759.22 5605.18 6759.22 5605.18 6953 5588.18 6953ZM5765.19 6733.22 5782.19 6733.22 5782.19 6953 5765.19 6953ZM5943.19 6673.22 5959.2 6673.22 5959.2 6953 5943.19 6953ZM6120.2 6747.22 6136.2 6747.22 6136.2 6953 6120.2 6953ZM6297.21 6729.22 6313.21 6729.22 6313.21 6953 6297.21 6953ZM6474.21 6786.22 6490.21 6786.22 6490.21 6953 6474.21 6953ZM6651.22 6763.22 6667.22 6763.22 6667.22 6953 6651.22 6953ZM6828.22 6769.22 6844.22 6769.22 6844.22 6953 6828.22 6953ZM7005.23 6769.22 7021.23 6769.22 7021.23 6953 7005.23 6953ZM7182.24 6771.22 7198.24 6771.22 7198.24 6953 7182.24 6953Z" fill="#264478" fill-rule="nonzero" fill-opacity="1"/></g><g clip-path="url(#clip8)"><path d="M5609.18 6771.22 5626.18 6771.22 5626.18 6953 5609.18 6953ZM5786.19 6860.23 5803.19 6860.23 5803.19 6953 5786.19 6953ZM5963.2 6913.23 5980.2 6913.23 5980.2 6953 5963.2 6953ZM6140.2 6822.22 6157.2 6822.22 6157.2 6953 6140.2 6953ZM6317.21 6861.23 6334.21 6861.23 6334.21 6953 6317.21 6953ZM6494.21 6811.22 6511.21 6811.22 6511.21 6953 6494.21 6953ZM6671.22 6899.23 6688.22 6899.23 6688.22 6953 6671.22 6953ZM6848.22 6896.23 6865.23 6896.23 6865.23 6953 6848.22 6953ZM7026.23 6895.23 7042.23 6895.23 7042.23 6953 7026.23 6953ZM7203.24 6854.23 7219.24 6854.23 7219.24 6953 7203.24 6953Z" fill="#767171" fill-rule="nonzero" fill-opacity="1"/></g><g clip-path="url(#clip9)"><path d="M5466.5 6953.5 7237.5 6953.5" stroke="#D9D9D9" stroke-width="3.4375" stroke-linecap="butt" stroke-linejoin="round" stroke-miterlimit="10" stroke-opacity="1" fill="none" fill-rule="evenodd"/></g><g clip-path="url(#clip10)"><text fill="#595959" fill-opacity="1" font-family="Calibri,Calibri_MSFontService,sans-serif" font-style="normal" font-variant="normal" font-weight="400" font-stretch="normal" font-size="41" text-anchor="start" direction="ltr" writing-mode="lr-tb" unicode-bidi="normal" text-decoration="none" transform="matrix(1 0 0 1 5407.53 6963)">0</text></g><g clip-path="url(#clip11)"><text fill="#595959" fill-opacity="1" font-family="Calibri,Calibri_MSFontService,sans-serif" font-style="normal" font-variant="normal" font-weight="400" font-stretch="normal" font-size="41" text-anchor="start" direction="ltr" writing-mode="lr-tb" unicode-bidi="normal" text-decoration="none" transform="matrix(1 0 0 1 5365.73 6862)">100</text></g><g clip-path="url(#clip12)"><text fill="#595959" fill-opacity="1" font-family="Calibri,Calibri_MSFontService,sans-serif" font-style="normal" font-variant="normal" font-weight="400" font-stretch="normal" font-size="41" text-anchor="start" direction="ltr" writing-mode="lr-tb" unicode-bidi="normal" text-decoration="none" transform="matrix(1 0 0 1 5365.73 6760)">200</text></g><g clip-path="url(#clip13)"><text fill="#595959" fill-opacity="1" font-family="Calibri,Calibri_MSFontService,sans-serif" font-style="normal" font-variant="normal" font-weight="400" font-stretch="normal" font-size="41" text-anchor="start" direction="ltr" writing-mode="lr-tb" unicode-bidi="normal" text-decoration="none" transform="matrix(1 0 0 1 5365.73 6658)">300</text></g><g clip-path="url(#clip14)"><text fill="#595959" fill-opacity="1" font-family="Calibri,Calibri_MSFontService,sans-serif" font-style="normal" font-variant="normal" font-weight="400" font-stretch="normal" font-size="41" text-anchor="start" direction="ltr" writing-mode="lr-tb" unicode-bidi="normal" text-decoration="none" transform="matrix(1 0 0 1 5365.73 6557)">400</text></g><g clip-path="url(#clip15)"><text fill="#595959" fill-opacity="1" font-family="Calibri,Calibri_MSFontService,sans-serif" font-style="normal" font-variant="normal" font-weight="400" font-stretch="normal" font-size="41" text-anchor="start" direction="ltr" writing-mode="lr-tb" unicode-bidi="normal" text-decoration="none" transform="matrix(1 0 0 1 5365.73 6455)">500</text></g><g clip-path="url(#clip16)"><text fill="#595959" fill-opacity="1" font-family="Calibri,Calibri_MSFontService,sans-serif" font-style="normal" font-variant="normal" font-weight="400" font-stretch="normal" font-size="41" text-anchor="start" direction="ltr" writing-mode="lr-tb" unicode-bidi="normal" text-decoration="none" transform="matrix(1 0 0 1 5365.73 6353)">600</text></g><g clip-path="url(#clip17)"><text fill="#595959" fill-opacity="1" font-family="Calibri,Calibri_MSFontService,sans-serif" font-style="normal" font-variant="normal" font-weight="400" font-stretch="normal" font-size="41" text-anchor="start" direction="ltr" writing-mode="lr-tb" unicode-bidi="normal" text-decoration="none" transform="matrix(1 0 0 1 5515.78 7018)">col 0</text></g><g clip-path="url(#clip18)"><text fill="#595959" fill-opacity="1" font-family="Calibri,Calibri_MSFontService,sans-serif" font-style="normal" font-variant="normal" font-weight="400" font-stretch="normal" font-size="41" text-anchor="start" direction="ltr" writing-mode="lr-tb" unicode-bidi="normal" text-decoration="none" transform="matrix(1 0 0 1 5519.07 7069)">long</text></g><g clip-path="url(#clip19)"><text fill="#595959" fill-opacity="1" font-family="Calibri,Calibri_MSFontService,sans-serif" font-style="normal" font-variant="normal" font-weight="400" font-stretch="normal" font-size="41" text-anchor="start" direction="ltr" writing-mode="lr-tb" unicode-bidi="normal" text-decoration="none" transform="matrix(1 0 0 1 5682.37 7018)">col 12</text></g><g clip-path="url(#clip20)"><text fill="#595959" fill-opacity="1" font-family="Calibri,Calibri_MSFontService,sans-serif" font-style="normal" font-variant="normal" font-weight="400" font-stretch="normal" font-size="41" text-anchor="start" direction="ltr" writing-mode="lr-tb" unicode-bidi="normal" text-decoration="none" transform="matrix(1 0 0 1 5684.81 7069)">string</text></g><g clip-path="url(#clip21)"><text fill="#595959" fill-opacity="1" font-family="Calibri,Calibri_MSFontService,sans-serif" font-style="normal" font-variant="normal" font-weight="400" font-stretch="normal" font-size="41" text-anchor="start" direction="ltr" writing-mode="lr-tb" unicode-bidi="normal" text-decoration="none" transform="matrix(1 0 0 1 5869.85 7018)">col 2</text></g><g clip-path="url(#clip22)"><text fill="#595959" fill-opacity="1" font-family="Calibri,Calibri_MSFontService,sans-serif" font-style="normal" font-variant="normal" font-weight="400" font-stretch="normal" font-size="41" text-anchor="start" direction="ltr" writing-mode="lr-tb" unicode-bidi="normal" text-decoration="none" transform="matrix(1 0 0 1 5861.85 7069)">string</text></g><g clip-path="url(#clip23)"><text fill="#595959" fill-opacity="1" font-family="Calibri,Calibri_MSFontService,sans-serif" font-style="normal" font-variant="normal" font-weight="400" font-stretch="normal" font-size="41" text-anchor="start" direction="ltr" writing-mode="lr-tb" unicode-bidi="normal" text-decoration="none" transform="matrix(1 0 0 1 6046.89 7018)">col 3</text></g><g clip-path="url(#clip24)"><text fill="#595959" fill-opacity="1" font-family="Calibri,Calibri_MSFontService,sans-serif" font-style="normal" font-variant="normal" font-weight="400" font-stretch="normal" font-size="41" text-anchor="start" direction="ltr" writing-mode="lr-tb" unicode-bidi="normal" text-decoration="none" transform="matrix(1 0 0 1 6020.69 7069)">decimal</text></g><g clip-path="url(#clip25)"><text fill="#595959" fill-opacity="1" font-family="Calibri,Calibri_MSFontService,sans-serif" font-style="normal" font-variant="normal" font-weight="400" font-stretch="normal" font-size="41" text-anchor="start" direction="ltr" writing-mode="lr-tb" unicode-bidi="normal" text-decoration="none" transform="matrix(1 0 0 1 6213.48 7018)">col 30</text></g><g clip-path="url(#clip26)"><text fill="#595959" fill-opacity="1" font-family="Calibri,Calibri_MSFontService,sans-serif" font-style="normal" font-variant="normal" font-weight="400" font-stretch="normal" font-size="41" text-anchor="start" direction="ltr" writing-mode="lr-tb" unicode-bidi="normal" text-decoration="none" transform="matrix(1 0 0 1 6215.92 7069)">string</text></g><g clip-path="url(#clip27)"><text fill="#595959" fill-opacity="1" font-family="Calibri,Calibri_MSFontService,sans-serif" font-style="normal" font-variant="normal" font-weight="400" font-stretch="normal" font-size="41" text-anchor="start" direction="ltr" writing-mode="lr-tb" unicode-bidi="normal" text-decoration="none" transform="matrix(1 0 0 1 6400.97 7018)">col 4</text></g><g clip-path="url(#clip28)"><text fill="#595959" fill-opacity="1" font-family="Calibri,Calibri_MSFontService,sans-serif" font-style="normal" font-variant="normal" font-weight="400" font-stretch="normal" font-size="41" text-anchor="start" direction="ltr" writing-mode="lr-tb" unicode-bidi="normal" text-decoration="none" transform="matrix(1 0 0 1 6374.77 7069)">decimal</text></g><g clip-path="url(#clip29)"><text fill="#595959" fill-opacity="1" font-family="Calibri,Calibri_MSFontService,sans-serif" font-style="normal" font-variant="normal" font-weight="400" font-stretch="normal" font-size="41" text-anchor="start" direction="ltr" writing-mode="lr-tb" unicode-bidi="normal" text-decoration="none" transform="matrix(1 0 0 1 6578.01 7018)">col 5</text></g><g clip-path="url(#clip30)"><text fill="#595959" fill-opacity="1" font-family="Calibri,Calibri_MSFontService,sans-serif" font-style="normal" font-variant="normal" font-weight="400" font-stretch="normal" font-size="41" text-anchor="start" direction="ltr" writing-mode="lr-tb" unicode-bidi="normal" text-decoration="none" transform="matrix(1 0 0 1 6551.8 7069)">decimal</text></g><g clip-path="url(#clip31)"><text fill="#595959" fill-opacity="1" font-family="Calibri,Calibri_MSFontService,sans-serif" font-style="normal" font-variant="normal" font-weight="400" font-stretch="normal" font-size="41" text-anchor="start" direction="ltr" writing-mode="lr-tb" unicode-bidi="normal" text-decoration="none" transform="matrix(1 0 0 1 6755.05 7018)">col 6</text></g><g clip-path="url(#clip32)"><text fill="#595959" fill-opacity="1" font-family="Calibri,Calibri_MSFontService,sans-serif" font-style="normal" font-variant="normal" font-weight="400" font-stretch="normal" font-size="41" text-anchor="start" direction="ltr" writing-mode="lr-tb" unicode-bidi="normal" text-decoration="none" transform="matrix(1 0 0 1 6728.84 7069)">decimal</text></g><g clip-path="url(#clip33)"><text fill="#595959" fill-opacity="1" font-family="Calibri,Calibri_MSFontService,sans-serif" font-style="normal" font-variant="normal" font-weight="400" font-stretch="normal" font-size="41" text-anchor="start" direction="ltr" writing-mode="lr-tb" unicode-bidi="normal" text-decoration="none" transform="matrix(1 0 0 1 6932.09 7018)">col 7</text></g><g clip-path="url(#clip34)"><text fill="#595959" fill-opacity="1" font-family="Calibri,Calibri_MSFontService,sans-serif" font-style="normal" font-variant="normal" font-weight="400" font-stretch="normal" font-size="41" text-anchor="start" direction="ltr" writing-mode="lr-tb" unicode-bidi="normal" text-decoration="none" transform="matrix(1 0 0 1 6905.88 7069)">decimal</text></g><g clip-path="url(#clip35)"><text fill="#595959" fill-opacity="1" font-family="Calibri,Calibri_MSFontService,sans-serif" font-style="normal" font-variant="normal" font-weight="400" font-stretch="normal" font-size="41" text-anchor="start" direction="ltr" writing-mode="lr-tb" unicode-bidi="normal" text-decoration="none" transform="matrix(1 0 0 1 7109.12 7018)">col 9</text></g><g clip-path="url(#clip36)"><text fill="#595959" fill-opacity="1" font-family="Calibri,Calibri_MSFontService,sans-serif" font-style="normal" font-variant="normal" font-weight="400" font-stretch="normal" font-size="41" text-anchor="start" direction="ltr" writing-mode="lr-tb" unicode-bidi="normal" text-decoration="none" transform="matrix(1 0 0 1 7082.92 7069)">decimal</text></g><g clip-path="url(#clip37)"><text fill="#595959" fill-opacity="1" font-family="Calibri,Calibri_MSFontService,sans-serif" font-style="normal" font-variant="normal" font-weight="400" font-stretch="normal" font-size="46" text-anchor="start" direction="ltr" writing-mode="lr-tb" unicode-bidi="normal" text-decoration="none" transform="matrix(6.12323e-17 -1 1 6.12323e-17 5340.04 6693)">GB/s</text></g><g clip-path="url(#clip38)"><text fill="#595959" fill-opacity="1" font-family="Calibri,Calibri_MSFontService,sans-serif" font-style="normal" font-variant="normal" font-weight="400" font-stretch="normal" font-size="64" text-anchor="start" direction="ltr" writing-mode="lr-tb" unicode-bidi="normal" text-decoration="none" transform="matrix(1 0 0 1 5906.03 6164)">Decompression throughput</text></g><g clip-path="url(#clip39)"><rect x="5572" y="6243" width="22" height="22" fill="#70AD47" fill-opacity="1"/></g><g clip-path="url(#clip40)"><text fill="#595959" fill-opacity="1" font-family="Calibri,Calibri_MSFontService,sans-serif" font-style="normal" font-variant="normal" font-weight="400" font-stretch="normal" font-size="41" text-anchor="start" direction="ltr" writing-mode="lr-tb" unicode-bidi="normal" text-decoration="none" transform="matrix(1 0 0 1 5603.83 6264)">Cascaded</text></g><g clip-path="url(#clip41)"><rect x="5807" y="6243" width="22" height="22" fill="#548235" fill-opacity="1"/></g><g clip-path="url(#clip42)"><text fill="#595959" fill-opacity="1" font-family="Calibri,Calibri_MSFontService,sans-serif" font-style="normal" font-variant="normal" font-weight="400" font-stretch="normal" font-size="41" text-anchor="start" direction="ltr" writing-mode="lr-tb" unicode-bidi="normal" text-decoration="none" transform="matrix(1 0 0 1 5838.83 6264)">LZ4</text></g><g clip-path="url(#clip43)"><rect x="5940" y="6243" width="23" height="22" fill="#A6A6A6" fill-opacity="1"/></g><g clip-path="url(#clip44)"><text fill="#595959" fill-opacity="1" font-family="Calibri,Calibri_MSFontService,sans-serif" font-style="normal" font-variant="normal" font-weight="400" font-stretch="normal" font-size="41" text-anchor="start" direction="ltr" writing-mode="lr-tb" unicode-bidi="normal" text-decoration="none" transform="matrix(1 0 0 1 5972.42 6264)">Snappy</text></g><g clip-path="url(#clip45)"><rect x="6139" y="6243" width="22" height="22" fill="#A9D18E" fill-opacity="1"/></g><g clip-path="url(#clip46)"><text fill="#595959" fill-opacity="1" font-family="Calibri,Calibri_MSFontService,sans-serif" font-style="normal" font-variant="normal" font-weight="400" font-stretch="normal" font-size="41" text-anchor="start" direction="ltr" writing-mode="lr-tb" unicode-bidi="normal" text-decoration="none" transform="matrix(1 0 0 1 6170.86 6264)">GDeflate-0</text></g><g clip-path="url(#clip47)"><rect x="6396" y="6243" width="22.9995" height="22" fill="#5B9BD5" fill-opacity="1"/></g><g clip-path="url(#clip48)"><text fill="#595959" fill-opacity="1" font-family="Calibri,Calibri_MSFontService,sans-serif" font-style="normal" font-variant="normal" font-weight="400" font-stretch="normal" font-size="41" text-anchor="start" direction="ltr" writing-mode="lr-tb" unicode-bidi="normal" text-decoration="none" transform="matrix(1 0 0 1 6428.5 6264)">GDeflate-2</text></g><g clip-path="url(#clip49)"><rect x="6654" y="6243" width="23" height="22" fill="#264478" fill-opacity="1"/></g><g clip-path="url(#clip50)"><text fill="#595959" fill-opacity="1" font-family="Calibri,Calibri_MSFontService,sans-serif" font-style="normal" font-variant="normal" font-weight="400" font-stretch="normal" font-size="41" text-anchor="start" direction="ltr" writing-mode="lr-tb" unicode-bidi="normal" text-decoration="none" transform="matrix(1 0 0 1 6686.14 6264)">ANS</text></g><g clip-path="url(#clip51)"><rect x="6799" y="6243" width="23" height="22" fill="#767171" fill-opacity="1"/></g><g clip-path="url(#clip52)"><text fill="#595959" fill-opacity="1" font-family="Calibri,Calibri_MSFontService,sans-serif" font-style="normal" font-variant="normal" font-weight="400" font-stretch="normal" font-size="41" text-anchor="start" direction="ltr" writing-mode="lr-tb" unicode-bidi="normal" text-decoration="none" transform="matrix(1 0 0 1 6831.62 6264)">Bitcomp</text></g><rect x="5239.5" y="6068.5" width="2048" height="1042" stroke="#D9D9D9" stroke-width="3.4375" stroke-linecap="butt" stroke-linejoin="round" stroke-miterlimit="10" stroke-opacity="1" fill="none"/></g></svg>